<svg xmlns="http://www.w3.org/2000/svg" xmlns:xlink="http://www.w3.org/1999/xlink" width="1000" zoomAndPan="magnify" viewBox="0 0 750 749.999995" height="1000" preserveAspectRatio="xMidYMid meet" version="1.0"><defs><clipPath id="2880a3b22d"><path d="M 82.066406 135 L 667.816406 135 L 667.816406 614 L 82.066406 614 Z M 82.066406 135 " clip-rule="nonzero"/></clipPath><clipPath id="6c7156e486"><path d="M 89.136719 151 L 674.886719 151 L 674.886719 631 L 89.136719 631 Z M 89.136719 151 " clip-rule="nonzero"/></clipPath><clipPath id="233c1b8a5a"><path d="M 99.308594 149 L 667.808594 149 L 667.808594 614 L 99.308594 614 Z M 99.308594 149 " clip-rule="nonzero"/></clipPath></defs><g clip-path="url(#2880a3b22d)"><path fill="#ffffff" d="M 636.941406 164.222656 L 619.316406 156.710938 C 612.257812 143.945312 598.820312 135.179688 583.230469 135.179688 L 452.261719 135.179688 C 431.386719 135.179688 410.6875 142.074219 393.976562 154.605469 L 374.996094 168.84375 L 356.007812 154.605469 C 339.304688 142.074219 318.605469 135.179688 297.730469 135.179688 L 166.761719 135.179688 C 151.171875 135.179688 137.726562 143.949219 130.671875 156.71875 L 112.972656 164.25 C 94.199219 172.441406 82.066406 190.714844 82.066406 210.8125 L 82.066406 517.960938 C 82.066406 552.519531 110.710938 580.625 145.914062 580.625 L 293.125 580.625 C 313.621094 580.625 333 588.496094 347.652344 602.753906 C 355.199219 610.171875 365.105469 613.875 375.011719 613.875 C 384.898438 613.875 394.785156 610.183594 402.300781 602.792969 C 416.992188 588.496094 436.371094 580.625 456.863281 580.625 L 604.078125 580.625 C 639.28125 580.625 667.921875 552.519531 667.921875 517.960938 L 667.921875 210.8125 C 667.921875 190.714844 655.792969 172.441406 636.941406 164.222656 Z M 422.242188 160.359375 C 431.484375 156.515625 441.359375 154.265625 451.394531 154.152344 L 451.394531 274.6875 L 444.011719 266.023438 C 440.421875 261.8125 433.214844 261.8125 429.625 266.023438 L 422.242188 274.6875 Z M 403.34375 171.199219 L 403.34375 300.351562 C 403.34375 304.308594 405.8125 307.851562 409.527344 309.21875 C 413.242188 310.574219 417.421875 309.496094 419.984375 306.476562 L 436.816406 286.71875 L 453.648438 306.476562 C 455.480469 308.628906 458.128906 309.800781 460.84375 309.800781 C 461.9375 309.800781 463.042969 309.605469 464.109375 309.21875 C 467.824219 307.851562 470.292969 304.308594 470.292969 300.351562 L 470.292969 154.078125 L 583.230469 154.078125 C 595.632812 154.078125 605.71875 164.164062 605.71875 176.566406 L 605.71875 484.960938 C 605.71875 497.363281 595.632812 507.449219 583.230469 507.449219 L 452.261719 507.449219 C 431.382812 507.449219 410.683594 514.351562 393.976562 526.882812 L 384.445312 534.035156 L 384.445312 185.378906 Z M 166.761719 154.078125 L 297.730469 154.078125 C 314.542969 154.078125 331.214844 159.632812 344.671875 169.71875 L 365.546875 185.378906 L 365.546875 534.03125 L 356.015625 526.882812 C 339.308594 514.351562 318.609375 507.449219 297.730469 507.449219 L 166.761719 507.449219 C 154.359375 507.449219 144.273438 497.363281 144.273438 484.960938 L 144.273438 176.566406 C 144.273438 164.164062 154.359375 154.078125 166.761719 154.078125 Z M 649.023438 517.960938 C 649.023438 542.089844 628.863281 561.726562 604.078125 561.726562 L 456.863281 561.726562 C 431.417969 561.726562 407.363281 571.5 389.085938 589.28125 C 381.320312 596.921875 368.679688 596.921875 360.867188 589.246094 C 342.628906 571.5 318.574219 561.726562 293.125 561.726562 L 145.914062 561.726562 C 121.128906 561.726562 100.964844 542.089844 100.964844 517.960938 L 100.964844 210.8125 C 100.964844 198.234375 108.644531 186.753906 120.453125 181.605469 L 125.375 179.507812 L 125.375 484.960938 C 125.375 507.78125 143.941406 526.347656 166.761719 526.347656 L 297.730469 526.347656 C 314.550781 526.347656 331.21875 531.902344 344.671875 542 L 356.578125 550.921875 C 361.914062 554.929688 368.296875 556.9375 374.695312 556.996094 C 374.800781 557 374.890625 557.058594 374.996094 557.058594 C 375.101562 557.058594 375.191406 557 375.292969 556.996094 C 381.695312 556.9375 388.078125 554.929688 393.417969 550.921875 L 405.320312 542 C 418.773438 531.902344 435.441406 526.347656 452.261719 526.347656 L 583.230469 526.347656 C 606.050781 526.347656 624.617188 507.78125 624.617188 484.960938 L 624.617188 179.515625 L 629.460938 181.578125 C 641.347656 186.753906 649.023438 198.234375 649.023438 210.8125 Z M 649.023438 517.960938 " fill-opacity="1" fill-rule="nonzero"/></g><g clip-path="url(#6c7156e486)"><path fill="#ffffff" d="M 644.007812 180.582031 L 626.382812 173.074219 C 619.328125 160.308594 605.886719 151.542969 590.300781 151.542969 L 459.328125 151.542969 C 438.457031 151.542969 417.757812 158.4375 401.046875 170.96875 L 382.0625 185.207031 L 363.078125 170.96875 C 346.371094 158.4375 325.671875 151.542969 304.800781 151.542969 L 173.828125 151.542969 C 158.238281 151.542969 144.796875 160.3125 137.742188 173.082031 L 120.039062 180.609375 C 101.265625 188.804688 89.136719 207.078125 89.136719 227.175781 L 89.136719 534.324219 C 89.136719 568.878906 117.78125 596.988281 152.984375 596.988281 L 300.195312 596.988281 C 320.691406 596.988281 340.070312 604.859375 354.722656 619.117188 C 362.265625 626.535156 372.171875 630.238281 382.078125 630.238281 C 391.964844 630.238281 401.851562 626.546875 409.371094 619.152344 C 424.058594 604.859375 443.4375 596.988281 463.933594 596.988281 L 611.144531 596.988281 C 646.347656 596.988281 674.992188 568.878906 674.992188 534.324219 L 674.992188 227.175781 C 674.992188 207.078125 662.863281 188.804688 644.007812 180.582031 Z M 429.3125 176.722656 C 438.554688 172.878906 448.425781 170.628906 458.460938 170.511719 L 458.460938 291.050781 L 451.078125 282.386719 C 447.488281 278.175781 440.28125 278.175781 436.691406 282.386719 L 429.3125 291.050781 Z M 410.410156 187.5625 L 410.410156 316.710938 C 410.410156 320.671875 412.878906 324.214844 416.59375 325.582031 C 420.308594 326.9375 424.488281 325.855469 427.054688 322.839844 L 443.886719 303.082031 L 460.71875 322.839844 C 462.550781 324.988281 465.199219 326.160156 467.910156 326.160156 C 469.003906 326.160156 470.113281 325.96875 471.175781 325.582031 C 474.890625 324.214844 477.359375 320.671875 477.359375 316.710938 L 477.359375 170.441406 L 590.300781 170.441406 C 602.699219 170.441406 612.789062 180.527344 612.789062 192.929688 L 612.789062 501.324219 C 612.789062 513.726562 602.699219 523.8125 590.300781 523.8125 L 459.328125 523.8125 C 438.449219 523.8125 417.753906 530.714844 401.046875 543.246094 L 391.511719 550.398438 L 391.511719 201.742188 Z M 173.828125 170.441406 L 304.800781 170.441406 C 321.613281 170.441406 338.28125 175.996094 351.742188 186.082031 L 372.613281 201.742188 L 372.613281 550.394531 L 363.082031 543.246094 C 346.375 530.714844 325.675781 523.8125 304.800781 523.8125 L 173.828125 523.8125 C 161.425781 523.8125 151.339844 513.726562 151.339844 501.324219 L 151.339844 192.929688 C 151.339844 180.527344 161.425781 170.441406 173.828125 170.441406 Z M 656.09375 534.324219 C 656.09375 558.453125 635.929688 578.089844 611.144531 578.089844 L 463.933594 578.089844 C 438.488281 578.089844 414.429688 587.863281 396.15625 605.644531 C 388.390625 613.285156 375.746094 613.285156 367.9375 605.609375 C 349.699219 587.863281 325.640625 578.089844 300.195312 578.089844 L 152.984375 578.089844 C 128.199219 578.089844 108.035156 558.453125 108.035156 534.324219 L 108.035156 227.175781 C 108.035156 214.597656 115.710938 203.117188 127.519531 197.96875 L 132.441406 195.871094 L 132.441406 501.324219 C 132.441406 524.144531 151.007812 542.710938 173.828125 542.710938 L 304.800781 542.710938 C 321.617188 542.710938 338.289062 548.265625 351.742188 558.359375 L 363.644531 567.285156 C 368.984375 571.289062 375.363281 573.300781 381.765625 573.359375 C 381.871094 573.363281 381.957031 573.421875 382.0625 573.421875 C 382.171875 573.421875 382.257812 573.363281 382.363281 573.359375 C 388.765625 573.300781 395.144531 571.289062 400.488281 567.285156 L 412.386719 558.359375 C 425.839844 548.265625 442.511719 542.710938 459.328125 542.710938 L 590.300781 542.710938 C 613.121094 542.710938 631.6875 524.144531 631.6875 501.324219 L 631.6875 195.878906 L 636.53125 197.941406 C 648.414062 203.117188 656.09375 214.597656 656.09375 227.175781 Z M 656.09375 534.324219 " fill-opacity="1" fill-rule="nonzero"/></g><g clip-path="url(#233c1b8a5a)"><path fill="#ffffff" d="M 637.855469 177.515625 L 620.75 170.226562 C 613.902344 157.835938 600.855469 149.328125 585.726562 149.328125 L 458.609375 149.328125 C 438.351562 149.328125 418.261719 156.019531 402.042969 168.183594 L 383.617188 182 L 365.191406 168.183594 C 348.976562 156.019531 328.886719 149.328125 308.628906 149.328125 L 181.511719 149.328125 C 166.378906 149.328125 153.332031 157.839844 146.484375 170.230469 L 129.304688 177.542969 C 111.082031 185.496094 99.308594 203.226562 99.308594 222.734375 L 99.308594 520.84375 C 99.308594 554.386719 127.109375 581.667969 161.277344 581.667969 L 304.160156 581.667969 C 324.050781 581.667969 342.859375 589.308594 357.082031 603.144531 C 364.402344 610.34375 374.015625 613.9375 383.632812 613.9375 C 393.230469 613.9375 402.824219 610.355469 410.121094 603.179688 C 424.378906 589.308594 443.1875 581.667969 463.078125 581.667969 L 605.957031 581.667969 C 640.125 581.667969 667.925781 554.386719 667.925781 520.84375 L 667.925781 222.734375 C 667.925781 203.226562 656.152344 185.496094 637.855469 177.515625 Z M 429.476562 173.765625 C 438.445312 170.035156 448.027344 167.851562 457.769531 167.738281 L 457.769531 284.730469 L 450.601562 276.320312 C 447.117188 272.234375 440.125 272.234375 436.640625 276.320312 L 429.476562 284.730469 Z M 411.132812 184.285156 L 411.132812 309.636719 C 411.132812 313.480469 413.527344 316.917969 417.132812 318.246094 C 420.738281 319.5625 424.796875 318.511719 427.285156 315.585938 L 443.621094 296.410156 L 459.957031 315.585938 C 461.734375 317.671875 464.304688 318.808594 466.9375 318.808594 C 468 318.808594 469.074219 318.621094 470.109375 318.246094 C 473.714844 316.917969 476.109375 313.480469 476.109375 309.636719 L 476.109375 167.671875 L 585.726562 167.671875 C 597.761719 167.671875 607.554688 177.460938 607.554688 189.496094 L 607.554688 488.816406 C 607.554688 500.855469 597.761719 510.644531 585.726562 510.644531 L 458.609375 510.644531 C 438.347656 510.644531 418.257812 517.34375 402.042969 529.503906 L 392.789062 536.445312 L 392.789062 198.046875 Z M 181.511719 167.671875 L 308.628906 167.671875 C 324.945312 167.671875 341.125 173.0625 354.1875 182.851562 L 374.449219 198.050781 L 374.449219 536.441406 L 365.195312 529.503906 C 348.980469 517.34375 328.890625 510.644531 308.628906 510.644531 L 181.511719 510.644531 C 169.472656 510.644531 159.683594 500.855469 159.683594 488.816406 L 159.683594 189.496094 C 159.683594 177.460938 169.472656 167.671875 181.511719 167.671875 Z M 649.585938 520.84375 C 649.585938 544.265625 630.015625 563.324219 605.957031 563.324219 L 463.078125 563.324219 C 438.382812 563.324219 415.03125 572.808594 397.292969 590.066406 C 389.757812 597.484375 377.488281 597.484375 369.90625 590.03125 C 352.203125 572.808594 328.855469 563.324219 304.160156 563.324219 L 161.277344 563.324219 C 137.222656 563.324219 117.652344 544.265625 117.652344 520.84375 L 117.652344 222.734375 C 117.652344 210.527344 125.105469 199.386719 136.5625 194.386719 L 141.34375 192.351562 L 141.34375 488.816406 C 141.34375 510.964844 159.363281 528.984375 181.511719 528.984375 L 308.628906 528.984375 C 324.949219 528.984375 341.128906 534.378906 354.1875 544.175781 L 365.742188 552.835938 C 370.921875 556.726562 377.117188 558.675781 383.328125 558.734375 C 383.429688 558.738281 383.515625 558.792969 383.617188 558.792969 C 383.722656 558.792969 383.804688 558.738281 383.910156 558.734375 C 390.121094 558.675781 396.316406 556.726562 401.5 552.835938 L 413.050781 544.175781 C 426.105469 534.378906 442.285156 528.984375 458.609375 528.984375 L 585.726562 528.984375 C 607.875 528.984375 625.894531 510.964844 625.894531 488.816406 L 625.894531 192.359375 L 630.597656 194.359375 C 642.132812 199.386719 649.585938 210.527344 649.585938 222.734375 Z M 649.585938 520.84375 " fill-opacity="1" fill-rule="nonzero"/></g></svg>